<svg width="280" height="280" viewBox="0 0 280 280" fill="none" xmlns="http://www.w3.org/2000/svg">
<rect x="2" y="2" width="276" height="276" rx="34" stroke="black" stroke-width="4"/>
<path d="M30.6875 176C29.7292 176 29 175.729 28.5 175.188C28.0417 174.604 27.8125 173.979 27.8125 173.312C27.8125 172.688 28.0208 172.125 28.4375 171.625C28.8958 171.125 29.5625 170.875 30.4375 170.875H37.1875V131.688L30.4375 133.062C30.0208 133.188 29.6042 133.25 29.1875 133.25C28.4375 133.25 27.8333 133.021 27.375 132.562C26.9583 132.062 26.75 131.5 26.75 130.875C26.75 130.375 26.8958 129.875 27.1875 129.375C27.5208 128.833 28.0625 128.479 28.8125 128.312L39.0625 126.25C39.6458 126.167 40.0208 126.125 40.1875 126.125C41.7292 126.125 42.5417 126.938 42.625 128.562L42.9375 136.062C44.1458 132.604 45.7917 129.938 47.875 128.062C49.9583 126.146 52.3333 125.188 55 125.188C57.375 125.188 59.5417 126 61.5 127.625C63.5 129.208 64.9792 131.708 65.9375 135.125C67.3958 131.875 69.2708 129.417 71.5625 127.75C73.8542 126.042 76.2917 125.188 78.875 125.188C82.1667 125.188 84.9583 126.625 87.25 129.5C89.5417 132.333 90.6875 136.729 90.6875 142.688V170.875H97.5C98.3333 170.875 98.9583 171.146 99.375 171.688C99.7917 172.188 100 172.75 100 173.375C100 174.042 99.7708 174.646 99.3125 175.188C98.8958 175.729 98.25 176 97.375 176H87.5625C86.6042 176 85.875 175.729 85.375 175.188C84.9167 174.604 84.6875 173.979 84.6875 173.312V142.25C84.6875 137.917 84.125 134.854 83 133.062C81.9167 131.229 80.4167 130.312 78.5 130.312C76.7083 130.312 74.9167 130.979 73.125 132.312C71.375 133.604 69.9167 135.312 68.75 137.438C67.5833 139.521 66.9792 141.771 66.9375 144.188V170.875H74.3125C75.1458 170.875 75.7708 171.146 76.1875 171.688C76.6042 172.188 76.8125 172.75 76.8125 173.375C76.8125 174.042 76.5833 174.646 76.125 175.188C75.7083 175.729 75.0625 176 74.1875 176H63.8125C62.8542 176 62.125 175.729 61.625 175.188C61.1667 174.604 60.9375 173.979 60.9375 173.312V142.25C60.9375 137.917 60.3125 134.854 59.0625 133.062C57.8125 131.229 56.25 130.312 54.375 130.312C52.5833 130.312 50.8333 131 49.125 132.375C47.4583 133.708 46.0833 135.458 45 137.625C43.9167 139.792 43.3125 142.104 43.1875 144.562V170.875H48.5C49.5 170.875 50.25 171.146 50.75 171.688C51.25 172.188 51.5 172.75 51.5 173.375C51.5 174.042 51.2292 174.646 50.6875 175.188C50.1875 175.729 49.4167 176 48.375 176H30.6875ZM144.75 113.125C143.333 113.125 142.104 112.625 141.062 111.625C140.062 110.625 139.562 109.417 139.562 108C139.562 106.542 140.062 105.312 141.062 104.312C142.104 103.312 143.333 102.812 144.75 102.812C146.208 102.812 147.417 103.312 148.375 104.312C149.375 105.312 149.875 106.542 149.875 108C149.875 109.417 149.375 110.625 148.375 111.625C147.417 112.625 146.208 113.125 144.75 113.125ZM119.938 176C118.979 176 118.25 175.729 117.75 175.188C117.292 174.604 117.062 173.979 117.062 173.312C117.062 172.688 117.271 172.125 117.688 171.625C118.146 171.125 118.812 170.875 119.688 170.875H142.938V131.062L122.125 133.875C122.042 133.875 121.958 133.896 121.875 133.938C121.833 133.938 121.771 133.938 121.688 133.938C120.854 133.938 120.208 133.667 119.75 133.125C119.333 132.583 119.125 131.979 119.125 131.312C119.125 130.729 119.292 130.188 119.625 129.688C119.958 129.188 120.458 128.896 121.125 128.812L146 125.375C146.125 125.333 146.354 125.312 146.688 125.312C148.188 125.312 148.938 125.979 148.938 127.312V170.875H169.75C170.583 170.875 171.208 171.146 171.625 171.688C172.042 172.229 172.25 172.812 172.25 173.438C172.25 174.104 172.021 174.708 171.562 175.25C171.146 175.75 170.521 176 169.688 176H119.938ZM191.125 176C190.167 176 189.438 175.729 188.938 175.188C188.479 174.604 188.25 173.979 188.25 173.312C188.25 172.688 188.458 172.125 188.875 171.625C189.333 171.125 190 170.875 190.875 170.875H197.625V131.688L190.875 133.062C190.458 133.188 190.042 133.25 189.625 133.25C188.875 133.25 188.271 133.021 187.812 132.562C187.396 132.062 187.188 131.5 187.188 130.875C187.188 130.375 187.333 129.875 187.625 129.375C187.958 128.833 188.5 128.479 189.25 128.312L199.5 126.25C200.083 126.167 200.458 126.125 200.625 126.125C202.167 126.125 202.979 126.938 203.062 128.562L203.375 136.062C204.958 132.979 207.583 130.396 211.25 128.312C214.958 126.229 218.979 125.188 223.312 125.188C229.354 125.188 233.792 126.75 236.625 129.875C239.458 132.958 240.875 137.229 240.875 142.688V170.875H247.688C248.521 170.875 249.146 171.146 249.562 171.688C249.979 172.188 250.188 172.75 250.188 173.375C250.188 174.042 249.958 174.646 249.5 175.188C249.083 175.729 248.438 176 247.562 176H226C225.042 176 224.312 175.729 223.812 175.188C223.354 174.604 223.125 173.979 223.125 173.312C223.125 172.688 223.333 172.125 223.75 171.625C224.208 171.125 224.875 170.875 225.75 170.875H234.875V142.25C234.875 138.542 233.938 135.625 232.062 133.5C230.229 131.375 227.417 130.312 223.625 130.312C219.625 130.312 216.125 131.062 213.125 132.562C210.125 134.062 207.792 135.917 206.125 138.125C204.458 140.292 203.625 142.438 203.625 144.562V170.875H210.188C211.188 170.875 211.938 171.146 212.438 171.688C212.938 172.188 213.188 172.75 213.188 173.375C213.188 174.042 212.917 174.646 212.375 175.188C211.875 175.729 211.104 176 210.062 176H191.125Z" fill="black"/>
</svg>
