<svg width="280" height="280" viewBox="0 0 280 280" fill="none" xmlns="http://www.w3.org/2000/svg">
<rect x="2" y="2" width="276" height="276" rx="34" stroke="#e2f1e7" stroke-width="4"/>
<path d="M36.776 187V93.56H60.968C67.0267 93.56 72.232 94.712 76.584 97.016C81.0213 99.32 84.4347 102.563 86.824 106.744C89.2987 110.925 90.536 115.875 90.536 121.592V158.84C90.536 164.557 89.2987 169.549 86.824 173.816C84.4347 177.997 81.0213 181.24 76.584 183.544C72.232 185.848 67.0267 187 60.968 187H36.776ZM48.296 176.76H60.968C66.6 176.76 70.9947 175.181 74.152 172.024C77.3947 168.867 79.016 164.472 79.016 158.84V121.592C79.016 116.045 77.3947 111.693 74.152 108.536C70.9947 105.379 66.6 103.8 60.968 103.8H48.296V176.76ZM113.91 187V93.432H168.95V103.928H125.174V135.032H165.622V145.528H125.43V187H113.91ZM184.9 187L209.22 93.56H224.708L248.9 187H237.252L231.108 162.168H202.82L196.676 187H184.9ZM205.124 152.44H228.676L221.508 123.64C220.143 118.179 219.076 113.613 218.308 109.944C217.54 106.275 217.071 103.885 216.9 102.776C216.729 103.885 216.26 106.275 215.492 109.944C214.724 113.613 213.657 118.136 212.292 123.512L205.124 152.44Z" fill="#e2f1e7"/>
</svg>
