<?xml version="1.0" encoding="iso-8859-1"?>
<!-- Uploaded to: SVG Repo, www.svgrepo.com, Generator: SVG Repo Mixer Tools -->
<!DOCTYPE svg PUBLIC "-//W3C//DTD SVG 1.1//EN" "http://www.w3.org/Graphics/SVG/1.1/DTD/svg11.dtd">
<svg fill="#e2f1e7" version="1.1" id="Capa_1" xmlns="http://www.w3.org/2000/svg" xmlns:xlink="http://www.w3.org/1999/xlink" 
	 width="800px" height="800px" viewBox="0 0 273.435 273.435"
	 xml:space="preserve">
<g>
	<path d="M266.589,150.868c-4.419-4.414-10.304-6.858-16.556-6.858c-2.653,0-5.254,0.445-7.686,1.285v-37.668
		c0-43.207-60.955-65.824-121.177-65.824C60.955,41.802,0,64.419,0,107.626v90.9c0,12.911,10.502,23.407,23.41,23.407
		s23.41-10.496,23.41-23.407v-89.891c3.27-4.993,26.49-20.014,74.352-20.014c47.87,0,71.091,15.021,74.357,20.014v35.35
		c-3.074-1.436-6.438-2.191-9.932-2.191c-6.245,0-12.13,2.438-16.55,6.852c-9.127,9.133-9.127,23.971,0,33.104l49.876,49.883
		l47.654-47.66c4.419-4.42,6.857-10.305,6.857-16.55C273.446,161.171,271.002,155.287,266.589,150.868z M259.461,176.85
		l-31.062,31.057c-0.024,0.036-0.061,0.061-0.096,0.097l-9.38,9.379l-42.748-42.754c-5.206-5.212-5.206-13.643,0-18.85
		c5.206-5.206,13.643-5.206,18.849,0l10.581,10.587v-58.739c0-9.862-29.808-29.078-84.434-29.078S36.74,97.764,36.74,107.626v90.9
		c0,7.362-5.969,13.331-13.331,13.331c-7.359,0-13.331-5.969-13.331-13.331v-90.9c0-36.208,57.241-55.745,111.092-55.745
		c53.856,0,111.101,19.542,111.101,55.745v58.709l8.341-8.334c5.2-5.207,13.643-5.207,18.849,0
		C264.667,163.201,264.667,171.638,259.461,176.85z"/>
</g>
</svg>