<svg width="280" height="280" viewBox="0 0 280 280" fill="none" xmlns="http://www.w3.org/2000/svg">
<rect x="2" y="2" width="276" height="276" rx="34" stroke="#e2f1e7" stroke-width="4"/>
<path d="M79.896 186V134.544C79.896 131.472 79.3413 129.083 78.232 127.376C77.208 125.669 75.5867 124.816 73.368 124.816C70.296 124.816 67.5227 126.779 65.048 130.704C62.6587 134.629 60.9947 140.816 60.056 149.264L58.904 138.384C59.16 130.704 60.952 124.731 64.28 120.464C67.6933 116.197 71.8747 114.064 76.824 114.064C81.432 114.064 85.0587 115.771 87.704 119.184C90.4347 122.512 91.8 127.291 91.8 133.52V186H79.896ZM21.4 186V115.6H32.792L33.304 129.296V186H21.4ZM50.712 186V134.544C50.712 131.301 50.1147 128.869 48.92 127.248C47.8107 125.627 46.104 124.816 43.8 124.816C40.5573 124.816 37.784 126.864 35.48 130.96C33.176 135.056 31.5547 141.157 30.616 149.264L30.36 138C30.5307 132.965 31.4267 128.656 33.048 125.072C34.6693 121.488 36.76 118.757 39.32 116.88C41.88 115.003 44.6107 114.064 47.512 114.064C52.2907 114.064 55.96 115.813 58.52 119.312C61.1653 122.725 62.488 127.419 62.488 133.392V186H50.712ZM134.09 186V115.6H147.018V186H134.09ZM108.106 186V175.504H171.21V186H108.106ZM117.45 126.096V115.6H140.49V126.096H117.45ZM133.194 103.568V89.616H147.658V103.568H133.194ZM242.044 186V141.584C242.044 136.635 240.636 132.667 237.82 129.68C235.004 126.608 231.335 125.072 226.812 125.072C221.607 125.072 216.956 126.992 212.86 130.832C208.849 134.587 205.649 140.475 203.26 148.496L201.212 134.032C203.857 127.376 207.655 122.384 212.604 119.056C217.639 115.728 223.1 114.064 228.988 114.064C234.279 114.064 238.844 115.216 242.684 117.52C246.609 119.739 249.639 122.853 251.772 126.864C253.905 130.875 254.972 135.611 254.972 141.072V186H242.044ZM191.868 186V115.6H204.156L204.796 131.472V186H191.868Z" fill="#e2f1e7"/>
</svg>
